<?xml version="1.0" encoding="UTF-8" standalone="no"?>
<!DOCTYPE svg PUBLIC "-//W3C//DTD SVG 1.1//EN" "http://www.w3.org/Graphics/SVG/1.1/DTD/svg11.dtd">
<svg version="1.1" xmlns="http://www.w3.org/2000/svg" xmlns:xlink="http://www.w3.org/1999/xlink" preserveAspectRatio="xMidYMid meet" viewBox="0 0 640 640" width="640" height="640"><defs><path d="M639 320C639 496.06 496.06 639 320 639C143.94 639 1 496.06 1 320C1 143.94 143.94 1 320 1C496.06 1 639 143.94 639 320Z" id="g3AeXj0rm9"></path><clipPath id="clipa2TpUz3qCv"><use xlink:href="#g3AeXj0rm9" opacity="1"></use></clipPath><path d="M450.17 155.4C443.64 155.4 438.37 160.67 438.37 167.2C438.37 173.73 443.64 179 450.17 179C451.52 179 458.29 179 470.47 179L470.47 233.54L191.28 233.54L191.28 179C203.46 179 210.23 179 211.58 179C218.11 179 223.38 173.73 223.38 167.2C223.38 160.67 218.11 155.4 211.58 155.4C205.16 155.4 153.79 155.4 147.37 155.4C140.84 155.4 135.57 160.67 135.57 167.2C135.57 173.73 140.84 179 147.37 179C148.72 179 155.49 179 167.67 179L167.67 245.34L167.67 311.75L167.67 320.41L147.13 320.41C147.13 271.97 147.13 245.06 147.13 239.67C147.13 233.14 141.86 227.87 135.33 227.87C128.8 227.87 123.53 233.14 123.53 239.67C123.53 259.69 123.53 419.77 123.53 439.78C123.53 446.32 128.8 451.59 135.33 451.59C141.86 451.59 147.13 446.32 147.13 439.78C147.13 433.39 147.13 401.45 147.13 343.94L167.67 343.94C167.67 446.96 167.67 504.19 167.67 515.64C167.67 522.17 172.94 527.45 179.48 527.45C186.01 527.45 191.28 522.17 191.28 515.64C191.28 514.39 191.28 508.15 191.28 496.91L224.96 496.91L441.99 496.91L470.47 496.91C470.47 508.15 470.47 514.39 470.47 515.64C470.47 522.17 475.74 527.45 482.28 527.45C488.81 527.45 494.08 522.17 494.08 515.64C494.08 502.04 494.08 434.06 494.08 311.68L494.08 245.26L494.08 179C506.26 179 513.03 179 514.38 179C520.91 179 526.19 173.73 526.19 167.2C526.19 160.67 520.99 155.4 514.46 155.4C501.6 155.4 456.6 155.4 450.17 155.4ZM236.76 473.31L236.76 439.39L430.18 439.39L430.18 473.31L236.76 473.31ZM453.87 473.31C453.87 445.87 453.87 430.63 453.87 427.59C453.87 421.06 448.6 415.78 442.07 415.78C420.35 415.78 246.67 415.78 224.96 415.78C218.43 415.78 213.15 421.06 213.15 427.59C213.15 430.63 213.15 445.87 213.15 473.31L191.28 473.31L191.28 363.69L470.55 363.69L470.55 473.31L453.87 473.31ZM191.28 340.08L191.28 323.48L470.55 323.48L470.55 340.08L191.28 340.08ZM191.28 299.87L191.28 257.06L470.55 257.06L470.55 299.87L191.28 299.87Z" id="f7uDM8Pj7F"></path></defs><g><g><g><g clip-path="url(#clipa2TpUz3qCv)"><use xlink:href="#g3AeXj0rm9" opacity="1" fill-opacity="0" stroke="#000000" stroke-width="44" stroke-opacity="1"></use></g></g><g><use xlink:href="#f7uDM8Pj7F" opacity="1" fill="#000000" fill-opacity="1"></use><g><use xlink:href="#f7uDM8Pj7F" opacity="1" fill-opacity="0" stroke="#000000" stroke-width="1" stroke-opacity="0"></use></g></g></g></g></svg>