<?xml version="1.0" encoding="iso-8859-1"?>
<!-- Generator: Adobe Illustrator 19.0.0, SVG Export Plug-In . SVG Version: 6.00 Build 0)  -->
<svg version="1.1" id="Capa_1" xmlns="http://www.w3.org/2000/svg" xmlns:xlink="http://www.w3.org/1999/xlink" x="0px" y="0px"
	 viewBox="0 0 511.7 511.7" style="enable-background:new 0 0 511.7 511.7;" xml:space="preserve">
<g>
	<g>
		<path d="M496.8,19.45h-81.7c-8.3,0-15,6.7-15,15c0,8.3,6.7,15,15,15h25.8v69.3H86.1v-69.3h25.8c8.3,0,15-6.7,15-15
			c0-8.3-6.7-15-15-15H30.3c-8.3,0-15,6.7-15,15c0,8.3,6.7,15,15,15h25.8v84.3v84.4v11H30v-102.6c0-8.3-6.7-15-15-15
			c-8.3,0-15,6.7-15,15v254.3c0,8.3,6.7,15,15,15c8.3,0,15-6.7,15-15v-121.8h26.1v218.2c0,8.3,6.7,15,15,15s15-6.7,15-15v-23.8h42.8
			h275.8h36.2v23.8c0,8.3,6.7,15,15,15s15-6.7,15-15v-259.2v-84.4v-84.2h25.8c8.3,0,15-6.7,15-15
			C511.7,26.15,505.1,19.45,496.8,19.45z M389.7,423.45H143.9v-43.1h245.8V423.45z M441,423.45h-21.2v-58.1c0-8.3-6.7-15-15-15
			H128.9c-8.3,0-15,6.7-15,15v58.1H86.1v-139.3H441V423.45z M441,254.15H86.1v-21.1H441V254.15z M441,203.05H86.1v-54.4H441V203.05z
			"/>
	</g>
</g>
<g>
</g>
<g>
</g>
<g>
</g>
<g>
</g>
<g>
</g>
<g>
</g>
<g>
</g>
<g>
</g>
<g>
</g>
<g>
</g>
<g>
</g>
<g>
</g>
<g>
</g>
<g>
</g>
<g>
</g>
</svg>
